<mxfile host="app.diagrams.net" modified="2023-11-06T08:56:24.925Z" agent="Mozilla/5.0 (Windows NT 10.0; Win64; x64) AppleWebKit/537.36 (KHTML, like Gecko) Chrome/118.0.0.0 Safari/537.36" version="22.0.8" etag="bI53wcmUe4-JBtHI-GSC" type="github">
  <diagram name="第 1 页" id="Bn8mED3t46ikXf7q2-7s">
    <mxGraphModel>
      <root>
        <mxCell id="0" />
        <mxCell id="1" parent="0" />
      </root>
    </mxGraphModel>
  </diagram>
</mxfile>
